<svg width="326" height="312" viewBox="0 0 326 312" fill="none" xmlns="http://www.w3.org/2000/svg">
<rect x="0.892822" y="28.7996" width="282.368" height="282.368" fill="#76EAEA" fill-opacity="0.24"/>
<rect x="30.4915" y="2.4248" width="278.368" height="278.368" stroke="#76EAEA" stroke-opacity="0.24" stroke-width="4"/>
<path d="M169.245 186.814C170.965 186.441 172.762 186.767 174.241 187.72C175.721 188.673 176.761 190.174 177.133 191.894C177.506 193.614 177.18 195.411 176.227 196.89C175.274 198.37 173.773 199.41 172.053 199.782C168.472 200.557 158.977 195.825 158.977 195.825C158.977 195.825 165.664 187.589 169.245 186.814Z" fill="#8C85FF"/>
<path d="M274.624 311.232C260.264 303.226 251.324 292.297 248.053 278.747C245.624 268.687 246.322 257.366 250.127 245.099C252.948 236.055 257.177 227.512 262.659 219.785C291.742 178.62 294.367 151.797 291.447 136.543C288.247 119.819 277.848 112.873 277.743 112.804L278.192 112.114C278.3 112.184 288.972 119.291 292.25 136.355C294.139 146.193 293.25 157.411 289.608 169.696C285.074 184.986 276.234 201.998 263.332 220.261C257.9 227.917 253.709 236.381 250.914 245.343C244.673 265.462 243.79 293.1 275.025 310.513L274.624 311.232Z" fill="#B0AFE8" fill-opacity="0.24"/>
<path d="M248.397 235.007C237.076 228.697 237.391 218.695 239.649 211.416C240.65 208.206 242.151 205.173 244.097 202.431C254.285 188.009 255.206 178.641 254.184 173.321C253.075 167.544 249.515 165.173 249.479 165.15L249.928 164.459C250.086 164.562 253.818 167.048 254.993 173.166C256.523 181.132 253.083 191.137 244.77 202.906C242.874 205.578 241.411 208.532 240.435 211.66C238.268 218.648 237.959 228.246 248.798 234.289L248.397 235.007Z" fill="#B0AFE8" fill-opacity="0.24"/>
<path d="M299.332 143.608L298.931 142.889C309.77 136.847 309.461 127.248 307.294 120.261C306.318 117.133 304.855 114.178 302.959 111.506C294.646 99.7383 291.206 89.7322 292.736 81.7664C293.911 75.6489 297.643 73.1625 297.801 73.0598L298.25 73.7497C298.214 73.7735 294.637 76.1762 293.538 81.9542C292.528 87.2708 293.459 96.6312 303.632 111.031C305.578 113.774 307.079 116.806 308.08 120.017C310.338 127.295 310.653 137.297 299.332 143.608Z" fill="white" fill-opacity="0.24"/>
<path d="M323.504 102.642C322.618 104.001 321.473 105.172 320.134 106.089C318.795 107.005 317.289 107.649 315.702 107.983C314.114 108.318 312.476 108.336 310.882 108.037C309.287 107.738 307.767 107.128 306.408 106.242C305.049 105.355 303.879 104.21 302.963 102.871C302.047 101.532 301.403 100.025 301.07 98.4374C300.736 96.8497 300.718 95.2119 301.018 93.6174C301.317 92.0229 301.928 90.503 302.815 89.1445C306.542 83.4314 325.307 77.2733 325.307 77.2733C325.307 77.2733 327.231 96.929 323.504 102.642Z" fill="#B8B4FF"/>
<path d="M318.975 64.3532C318.089 65.7123 316.944 66.8835 315.605 67.8C314.267 68.7165 312.76 69.3602 311.173 69.6945C309.585 70.0288 307.947 70.047 306.353 69.7481C304.758 69.4493 303.238 68.8392 301.879 67.9527C300.521 67.0662 299.35 65.9207 298.434 64.5817C297.518 63.2426 296.875 61.7362 296.541 60.1485C296.207 58.5608 296.19 56.9229 296.489 55.3284C296.789 53.7339 297.399 52.214 298.286 50.8556C302.013 45.1425 320.778 38.9844 320.778 38.9844C320.778 38.9844 322.702 58.6401 318.975 64.3532Z" fill="#BAB6FF"/>
<path d="M299.067 204.629C296.17 204.634 293.357 203.652 291.091 201.846C288.825 200.04 287.241 197.516 286.6 194.69C285.959 191.864 286.299 188.904 287.564 186.297C288.828 183.69 290.942 181.591 293.558 180.345C299.775 177.382 318.422 181.719 319.213 181.905L319.713 182.023L319.489 182.485C319.135 183.216 310.754 200.427 304.536 203.389C302.829 204.206 300.96 204.629 299.067 204.629ZM300.106 180.137C297.577 180.137 295.361 180.398 293.913 181.088C291.054 182.45 288.853 184.891 287.794 187.876C286.736 190.86 286.906 194.143 288.268 197.002C289.63 199.861 292.072 202.061 295.056 203.12C298.04 204.179 301.323 204.008 304.182 202.646C309.591 200.07 317.113 185.405 318.518 182.592C316.27 182.093 307.021 180.137 300.106 180.137Z" fill="white" fill-opacity="0.24"/>
<path d="M273.898 91.3097C275.096 92.4026 276.068 93.7208 276.757 95.1892C277.446 96.6575 277.839 98.2472 277.914 99.8674C277.989 101.488 277.743 103.107 277.192 104.632C276.641 106.158 275.795 107.56 274.703 108.759C273.61 109.957 272.291 110.929 270.823 111.618C269.355 112.307 267.765 112.7 266.145 112.775C264.525 112.849 262.905 112.604 261.38 112.053C259.854 111.502 258.452 110.656 257.254 109.563C252.213 104.967 249.147 85.457 249.147 85.457C249.147 85.457 268.857 86.7136 273.898 91.3097Z" fill="#8C85FF"/>
<path d="M245.078 143.185C247.499 145.392 248.943 148.471 249.094 151.743C249.245 155.015 248.09 158.213 245.883 160.634C243.676 163.054 240.598 164.499 237.325 164.65C234.053 164.801 230.855 163.646 228.434 161.439C223.394 156.843 220.328 137.332 220.328 137.332C220.328 137.332 240.038 138.589 245.078 143.185Z" fill="#BAB6FF"/>
<path d="M277.382 150.46C273.259 150.46 265.376 146.557 265.014 146.376L264.555 146.147L264.879 145.748C265.155 145.408 271.699 137.391 275.379 136.594C277.205 136.199 279.114 136.545 280.685 137.557C282.256 138.569 283.361 140.164 283.757 141.99C284.152 143.817 283.806 145.725 282.794 147.297C281.782 148.868 280.187 149.972 278.361 150.368C278.038 150.433 277.71 150.464 277.382 150.46ZM265.851 145.867C267.792 146.793 275.228 150.204 278.187 149.563C279.799 149.213 281.206 148.237 282.099 146.85C282.991 145.462 283.297 143.777 282.948 142.165C282.599 140.553 281.624 139.145 280.237 138.251C278.85 137.358 277.166 137.051 275.553 137.399C272.594 138.04 267.235 144.22 265.851 145.867Z" fill="white" fill-opacity="0.24"/>
<path d="M222.312 277.273C223.179 275.743 224.618 274.62 226.313 274.151C228.008 273.681 229.82 273.904 231.351 274.771C232.881 275.637 234.005 277.075 234.476 278.77C234.946 280.464 234.725 282.276 233.86 283.808C232.055 286.997 222.204 290.934 222.204 290.934C222.204 290.934 220.507 280.462 222.312 277.273Z" fill="#8E87FF"/>
<path d="M211.618 247.327C208.776 247.281 205.941 247.037 203.133 246.596L202.626 246.513L202.817 246.036C202.98 245.629 206.849 236.031 210.127 234.178C210.933 233.723 211.82 233.43 212.738 233.318C213.657 233.205 214.588 233.275 215.48 233.522C216.371 233.77 217.206 234.191 217.935 234.76C218.664 235.33 219.273 236.038 219.729 236.844C220.184 237.649 220.476 238.536 220.589 239.455C220.701 240.373 220.632 241.305 220.384 242.197C220.137 243.088 219.716 243.922 219.146 244.651C218.576 245.38 217.868 245.99 217.063 246.445C215.885 247.111 213.811 247.327 211.618 247.327ZM203.781 245.86C205.91 246.169 214.022 247.218 216.657 245.729C218.094 244.917 219.149 243.567 219.591 241.977C220.033 240.386 219.824 238.686 219.012 237.249C218.2 235.812 216.85 234.757 215.26 234.316C213.67 233.874 211.969 234.082 210.532 234.894C207.897 236.384 204.614 243.877 203.781 245.86Z" fill="#B0AFE8" fill-opacity="0.24"/>
<circle cx="25.6174" cy="227.682" r="10.6147" fill="#71D5FF" fill-opacity="0.24"/>
<path d="M273.751 311.167H136.024C136.024 311.167 133.232 270.221 149.75 269.756C166.268 269.29 164.407 287.902 185.113 262.311C205.818 236.72 230.944 238.116 234.201 253.238C237.458 268.36 227.92 280.457 245.368 276.735C262.817 273.013 287.943 282.784 273.751 311.167Z" fill="#63C7FF" fill-opacity="0.38"/>
<path d="M202.562 311.176L202.098 311.158C203.182 284.199 208.828 266.878 213.373 257.095C218.309 246.472 223.064 242.172 223.112 242.129L223.421 242.477C223.374 242.519 218.674 246.777 213.778 257.327C209.258 267.069 203.643 284.319 202.562 311.176Z" fill="#F2F2F2"/>
<path d="M252.41 311.232L251.963 311.102C257.342 292.641 270.007 280.985 270.135 280.869L270.448 281.213C270.321 281.328 257.75 292.902 252.41 311.232Z" fill="#F2F2F2"/>
<path d="M157.717 311.199L157.256 311.135C159.08 297.974 155.784 287.763 152.698 281.515C149.355 274.749 145.542 271.054 145.504 271.018L145.826 270.682C145.865 270.719 149.737 274.471 153.115 281.309C156.23 287.615 159.558 297.921 157.717 311.199Z" fill="#F2F2F2"/>
<path d="M12.6131 311.191H99.8213C99.8213 311.191 101.589 285.264 91.1299 284.969C80.6708 284.675 81.8493 296.46 68.7386 280.255C55.6279 264.051 39.7183 264.935 37.656 274.51C35.5936 284.086 41.6334 291.746 30.585 289.389C19.5367 287.032 3.62709 293.219 12.6131 311.191Z" fill="#6C63FF" fill-opacity="0.38"/>
<path d="M57.6893 311.197L57.9836 311.185C57.2972 294.115 53.7222 283.147 50.844 276.953C47.719 270.226 44.7076 267.503 44.6775 267.477L44.4817 267.697C44.5114 267.723 47.4877 270.419 50.5877 277.1C53.45 283.268 57.0054 294.191 57.6893 311.197Z" fill="#F2F2F2"/>
<path d="M26.1266 311.232L26.4094 311.15C23.0037 299.46 14.9837 292.079 14.903 292.006L14.7051 292.224C14.7851 292.297 22.745 299.625 26.1266 311.232Z" fill="#F2F2F2"/>
<path d="M86.0856 311.211L86.3775 311.171C85.222 302.837 87.3092 296.372 89.2636 292.415C91.3799 288.131 93.7944 285.792 93.8186 285.768L93.6148 285.556C93.5902 285.579 91.1383 287.955 88.9995 292.285C87.0268 296.278 84.9198 302.803 86.0856 311.211Z" fill="#F2F2F2"/>
</svg>
