<svg width="348" height="348" viewBox="0 0 348 348" fill="none" xmlns="http://www.w3.org/2000/svg">
<path d="M191.248 171.509C189.316 171.091 187.296 171.457 185.634 172.528C183.972 173.598 182.803 175.285 182.385 177.218C181.966 179.15 182.333 181.169 183.403 182.832C184.474 184.494 186.161 185.663 188.093 186.081C192.117 186.952 202.786 181.634 202.786 181.634C202.786 181.634 195.272 172.38 191.248 171.509Z" fill="#8C85FF"/>
<path d="M72.8387 311.312C88.9748 302.316 99.02 290.035 102.696 274.81C105.425 263.506 104.64 250.785 100.365 237.002C97.1953 226.839 92.4431 217.24 86.2833 208.558C53.6048 162.302 50.6554 132.162 53.9355 115.023C57.5319 96.2299 69.2164 88.425 69.3341 88.3485L68.8297 87.5728C68.709 87.6511 56.7167 95.6374 53.0338 114.812C50.9107 125.866 51.9096 138.47 56.0026 152.275C61.0968 169.455 71.0305 188.571 85.5275 209.092C91.6311 217.695 96.3402 227.206 99.4812 237.275C106.494 259.882 107.486 290.938 72.3883 310.504L72.8387 311.312Z" fill="#B0AFE8" fill-opacity="0.24"/>
<path d="M102.309 225.662C115.03 218.571 114.676 207.333 112.139 199.154C111.014 195.546 109.327 192.139 107.141 189.057C95.6925 172.852 94.6579 162.326 95.8059 156.348C97.0528 149.857 101.053 147.192 101.093 147.166L100.589 146.391C100.411 146.506 96.2177 149.3 94.8974 156.174C93.1781 165.124 97.0431 176.368 106.385 189.591C108.515 192.593 110.159 195.913 111.255 199.427C113.691 207.28 114.038 218.065 101.859 224.854L102.309 225.662Z" fill="#B0AFE8" fill-opacity="0.24"/>
<path d="M45.0756 122.961L45.526 122.153C33.3468 115.364 33.6938 104.579 36.1295 96.7267C37.2257 93.2121 38.8693 89.8924 40.9999 86.89C50.3417 73.6667 54.2066 62.4234 52.4874 53.4726C51.1671 46.5987 46.9739 43.8049 46.7962 43.6895L46.2913 44.4647C46.3317 44.4914 50.3519 47.1912 51.5859 53.6836C52.7212 59.6577 51.6753 70.1754 40.2441 86.356C38.0577 89.4378 36.3709 92.8452 35.2459 96.4524C32.7087 104.631 32.3545 115.87 45.0756 122.961Z" fill="white" fill-opacity="0.24"/>
<path d="M17.9153 76.9296C18.9108 78.4568 20.1974 79.7729 21.7017 80.8027C23.2059 81.8325 24.8983 82.5558 26.6822 82.9314C28.4661 83.307 30.3065 83.3275 32.0983 82.9917C33.8901 82.6559 35.5981 81.9703 37.1249 80.9742C38.6517 79.9781 39.9673 78.691 40.9966 77.1864C42.0258 75.6817 42.7485 73.9891 43.1235 72.205C43.4984 70.421 43.5182 68.5806 43.1817 66.789C42.8452 64.9973 42.159 63.2895 41.1624 61.7631C36.9742 55.3435 15.8889 48.424 15.8889 48.424C15.8889 48.424 13.7271 70.5101 17.9153 76.9296Z" fill="#B8B4FF"/>
<path d="M23.0041 33.9062C23.9997 35.4334 25.2863 36.7494 26.7905 37.7792C28.2948 38.809 29.9872 39.5324 31.7711 39.908C33.555 40.2836 35.3954 40.3041 37.1871 39.9682C38.9789 39.6324 40.687 38.9469 42.2138 37.9508C43.7406 36.9547 45.0562 35.6676 46.0854 34.1629C47.1147 32.6583 47.8374 30.9656 48.2123 29.1816C48.5873 27.3976 48.6071 25.5572 48.2706 23.7655C47.9341 21.9739 47.2479 20.266 46.2512 18.7396C42.0631 12.3201 20.9778 5.40051 20.9778 5.40051C20.9778 5.40051 18.816 27.4867 23.0041 33.9062Z" fill="#BAB6FF"/>
<path d="M45.3732 191.528C48.6292 191.533 51.7901 190.43 54.336 188.4C56.8819 186.37 58.6614 183.535 59.3817 180.36C60.102 177.184 59.7204 173.858 58.2994 170.929C56.8785 167.999 54.503 165.64 51.5634 164.24C44.5779 160.911 23.6257 165.784 22.7368 165.993L22.175 166.125L22.4263 166.645C22.8238 167.467 32.242 186.806 39.2282 190.134C41.147 191.051 43.2466 191.527 45.3732 191.528ZM44.2063 164.006C47.0479 164.006 49.5381 164.3 51.1654 165.075C54.3778 166.605 56.8507 169.349 58.0401 172.703C59.2295 176.056 59.0381 179.745 57.5079 182.957C55.9777 186.169 53.2341 188.642 49.8806 189.832C46.5271 191.021 42.8385 190.83 39.6262 189.299C33.5487 186.404 25.096 169.926 23.5177 166.765C26.0431 166.204 36.436 164.006 44.2063 164.006Z" fill="white" fill-opacity="0.24"/>
<path d="M73.6552 64.196C72.3085 65.424 71.2168 66.9052 70.4425 68.5551C69.6681 70.205 69.2264 71.9912 69.1424 73.8119C69.0584 75.6325 69.3339 77.4518 69.953 79.166C70.5722 80.8801 71.5229 82.4556 72.7509 83.8023C73.9788 85.1491 75.4601 86.2408 77.11 87.0151C78.7598 87.7894 80.5461 88.2311 82.3667 88.3151C84.1873 88.3991 86.0067 88.1236 87.7208 87.5045C89.435 86.8854 91.0104 85.9347 92.3572 84.7067C98.0211 79.5423 101.466 57.6195 101.466 57.6195C101.466 57.6195 79.3191 59.0316 73.6552 64.196Z" fill="#8C85FF"/>
<path d="M106.039 122.486C103.319 124.966 101.695 128.425 101.526 132.102C101.356 135.778 102.654 139.372 105.134 142.092C107.614 144.812 111.073 146.435 114.75 146.605C118.427 146.774 122.021 145.476 124.74 142.996C130.404 137.832 133.849 115.909 133.849 115.909C133.849 115.909 111.702 117.321 106.039 122.486Z" fill="#BAB6FF"/>
<path d="M69.7404 130.661C74.3726 130.661 83.2303 126.274 83.6367 126.072L84.1533 125.814L83.7894 125.366C83.4784 124.983 76.126 115.975 71.9906 115.08C69.9383 114.636 67.7935 115.025 66.0282 116.162C64.2628 117.299 63.0214 119.091 62.5771 121.143C62.1328 123.195 62.522 125.34 63.6591 127.106C64.7962 128.871 66.5879 130.112 68.6403 130.557C69.0023 130.63 69.371 130.665 69.7404 130.661ZM82.6968 125.499C80.5152 126.54 72.1598 130.372 68.8359 129.652C67.0245 129.259 65.4434 128.162 64.4402 126.603C63.437 125.045 63.0938 123.151 63.486 121.34C63.8782 119.528 64.9738 117.946 66.5319 116.942C68.09 115.938 69.9831 115.593 71.795 115.984C75.1201 116.704 81.1413 123.648 82.6968 125.499Z" fill="white" fill-opacity="0.24"/>
<path d="M131.62 273.154C130.646 271.434 129.028 270.173 127.124 269.645C125.219 269.118 123.183 269.369 121.463 270.342C119.743 271.315 118.48 272.932 117.952 274.836C117.423 276.74 117.672 278.776 118.644 280.497C120.672 284.08 131.741 288.504 131.741 288.504C131.741 288.504 133.648 276.737 131.62 273.154Z" fill="#8E87FF"/>
<path d="M143.636 239.505C146.829 239.454 150.015 239.179 153.17 238.683L153.74 238.59L153.525 238.055C153.342 237.597 148.994 226.812 145.311 224.73C144.406 224.218 143.409 223.89 142.377 223.763C141.345 223.637 140.298 223.715 139.296 223.993C138.295 224.271 137.357 224.744 136.538 225.385C135.719 226.025 135.034 226.82 134.522 227.725C134.011 228.63 133.682 229.627 133.556 230.659C133.429 231.691 133.508 232.738 133.786 233.74C134.064 234.742 134.537 235.679 135.177 236.498C135.817 237.317 136.613 238.002 137.518 238.514C138.841 239.262 141.171 239.505 143.636 239.505ZM152.442 237.857C150.05 238.203 140.934 239.382 137.973 237.709C136.359 236.796 135.173 235.28 134.677 233.493C134.181 231.706 134.415 229.795 135.328 228.181C136.24 226.566 137.757 225.381 139.544 224.885C141.331 224.388 143.241 224.622 144.856 225.535C147.817 227.209 151.506 235.628 152.442 237.857Z" fill="#B0AFE8" fill-opacity="0.24"/>
<circle cx="173.937" cy="173.774" r="173.454" fill="#B0AFE8" fill-opacity="0.24"/>
<circle cx="30.9191" cy="156.129" r="10.6147" fill="#71D5FF" fill-opacity="0.24"/>
<circle cx="173.919" cy="156.129" r="10.6147" fill="#71D5FF" fill-opacity="0.24"/>
<mask id="mask0_0_270" style="mask-type:alpha" maskUnits="userSpaceOnUse" x="0" y="0" width="348" height="348">
<circle cx="173.937" cy="173.774" r="173.454" fill="#B0AFE8" fill-opacity="0.24"/>
</mask>
<g mask="url(#mask0_0_270)">
<path d="M352.944 325.187L156.152 358.74C156.152 358.74 142.188 300.914 165.676 296.225C189.165 291.536 191.04 318.583 214.39 276.973C237.741 235.363 273.982 231.236 282.32 252.05C290.658 272.864 279.976 292.473 304.001 282.904C328.025 273.334 366.307 281.175 352.944 325.187Z" fill="#6C63FF" fill-opacity="0.38"/>
<path d="M225.545 351.411L224.871 351.384C226.443 312.309 234.626 287.202 241.215 273.022C248.369 257.624 255.262 251.391 255.331 251.33L255.779 251.834C255.711 251.894 248.898 258.066 241.802 273.359C235.25 287.48 227.111 312.483 225.545 351.411Z" fill="#F2F2F2"/>
<path d="M297.797 351.492L297.149 351.303C304.946 324.544 323.304 307.649 323.489 307.482L323.942 307.981C323.759 308.147 305.538 324.923 297.797 351.492Z" fill="#F2F2F2"/>
<path d="M160.542 351.444L159.874 351.351C162.519 332.275 157.741 317.474 153.267 308.418C148.423 298.611 142.895 293.255 142.84 293.202L143.307 292.716C143.363 292.769 148.976 298.208 153.872 308.119C158.388 317.261 163.211 332.198 160.542 351.444Z" fill="#F2F2F2"/>
<path d="M-26.441 266.874L101.26 334.771C101.26 334.771 124.034 298.182 108.948 289.607C93.8618 281.033 86.4122 299.207 79.8299 265.272C73.2476 231.336 49.2627 220.244 38.7879 232.659C28.313 245.075 31.1933 260.994 16.85 248.941C2.50668 236.888 -25.6071 233.561 -26.441 266.874Z" fill="#6C63FF" fill-opacity="0.38"/>
<path d="M39.5605 301.977L40.0007 302.189C52.2856 276.659 55.5895 257.815 56.1979 246.503C56.8587 234.221 54.569 227.889 54.5458 227.826L54.0877 227.996C54.1105 228.058 56.3698 234.323 55.7078 246.519C55.0966 257.781 51.799 276.543 39.5605 301.977Z" fill="#F2F2F2"/>
<path d="M-6.68505 277.455L-6.20679 277.555C-2.09274 257.786 -8.09037 240.734 -8.15154 240.564L-8.61123 240.73C-8.55066 240.898 -2.60023 257.827 -6.68505 277.455Z" fill="#F2F2F2"/>
<path d="M81.1306 324.106L81.5896 324.274C86.3857 311.172 94.4759 303.329 100.418 299.057C106.852 294.432 112.21 292.886 112.263 292.871L112.13 292.401C112.076 292.416 106.636 293.986 100.133 298.661C94.135 302.973 85.9695 310.887 81.1306 324.106Z" fill="#F2F2F2"/>
</g>
</svg>
